<?xml version="1.0" standalone="no"?>
<!DOCTYPE svg PUBLIC "-//W3C//DTD SVG 20010904//EN"
 "http://www.w3.org/TR/2001/REC-SVG-20010904/DTD/svg10.dtd">
<svg version="1.0" xmlns="http://www.w3.org/2000/svg"
 width="353.000000pt" height="162.000000pt" viewBox="0 0 353.000000 162.000000"
 preserveAspectRatio="xMidYMid meet">

<g transform="translate(0.000000,162.000000) scale(0.100000,-0.100000)"
fill="#FF7300" stroke="none">
<path d="M30 1603 c0 -5 137 -287 303 -628 l303 -620 287 0 288 0 297 602
c163 331 303 603 310 603 9 0 12 -127 12 -605 l0 -605 230 0 230 0 0 199 0
198 338 2 c263 1 355 5 417 17 163 33 270 105 327 222 32 64 33 72 33 187 0
114 -2 123 -32 187 -39 84 -101 146 -184 186 -127 62 -129 63 -1023 60 l-809
-3 -134 -290 c-74 -159 -147 -319 -162 -355 -53 -120 -102 -220 -109 -220 -4
0 -97 195 -207 433 l-200 432 -257 3 c-142 1 -258 -1 -258 -5z m2797 -258 c89
-26 133 -99 120 -197 -7 -53 -32 -87 -88 -118 -44 -25 -46 -25 -306 -27 l-263
-1 0 179 0 179 243 0 c188 0 255 -3 294 -15z"/>
</g>
</svg>
